Coordinates
version=1
nRows=21
nColumns=28
inDegrees=yes

Units are S.I. units (second, meters, Newtons, ...)
Angles are in degrees.

endheader
time	pelvis_tilt	pelvis_list	pelvis_rotation	pelvis_tx	pelvis_ty	pelvis_tz	hip_flexion_r	hip_adduction_r	hip_rotation_r	knee_angle_r	ankle_angle_r	subtalar_angle_r	mtp_angle_r	hip_flexion_l	hip_adduction_l	hip_rotation_l	knee_angle_l	socket_flexion	socket_adduction	socket_rotation	socket_tx	socket_ty	socket_tz	foot_flex	lumbar_extension	lumbar_bending	lumbar_rotation
      0.00000000	     -0.94363702	     -7.58376643	     -6.03093651	     -0.87056943	      0.99056122	      0.29000532	    -24.24136533	     10.06131874	      2.57259027	     -3.89737628	      5.87829323	     -9.99769939	      8.97400688	     29.79042531	     -9.62583659	     10.74000303	     -7.55111578	      0.00000000	      0.00000000	      0.00000000	      0.00000000	      0.00000000	      0.00000000	     -0.48521159	    -10.84312091	      5.94930771	      8.74044686
      0.00416667	     -1.00097569	     -7.60486740	     -5.94221430	     -0.86500047	      0.98993431	      0.28951849	    -24.34884774	     10.08264262	      2.65220740	     -4.10979780	      5.83350449	     -9.99124274	      8.97449806	     29.62550157	     -9.54145669	     10.76224511	     -7.61157508	      0.00000000	      0.00000000	      0.00000000	      0.00000000	      0.00000000	      0.00000000	     -0.57517793	    -10.68611287	      5.96237323	      8.74463601
      0.00833333	     -1.04270025	     -7.61925231	     -5.93381313	     -0.85945267	      0.98949482	      0.28913484	    -24.23217714	     10.07090713	      2.56926848	     -4.78815216	      5.61924955	    -10.14094999	      8.95557378	     29.33546438	     -9.50707554	     10.84311947	     -7.45342322	      0.00000000	      0.00000000	      0.00000000	      0.00000000	      0.00000000	      0.00000000	     -1.08540742	    -10.64756773	      5.94698129	      8.73566883
      0.01250000	     -1.09021779	     -7.63676954	     -5.92122671	     -0.85361423	      0.98900490	      0.28872092	    -24.15060973	     10.05904252	      2.48673328	     -5.40989110	      5.45869905	    -10.28576972	      8.95890326	     29.07808147	     -9.46299059	     10.86677600	     -7.40366774	      0.00000000	      0.00000000	      0.00000000	      0.00000000	      0.00000000	      0.00000000	     -1.35829260	    -10.55644927	      5.94011226	      8.73327433
      0.01666667	     -1.15623063	     -7.65349242	     -5.93104619	     -0.84766522	      0.98850722	      0.28829546	    -23.97952782	     10.03535375	      2.33109077	     -6.17253283	      5.32813203	    -10.49638307	      9.03722392	     28.84389196	     -9.42164974	     10.81841753	     -7.38639776	      0.00000000	      0.00000000	      0.00000000	      0.00000000	      0.00000000	      0.00000000	     -1.60173393	    -10.45318376	      5.96139677	      8.76593324
      0.02083333	     -1.24782263	     -7.65830269	     -5.92169863	     -0.84153132	      0.98798997	      0.28788111	    -23.81959776	     10.01841352	      2.24084699	     -6.87479172	      5.14909111	    -10.63845495	      9.13905103	     28.61877432	     -9.36523873	     10.84942723	     -7.34554713	      0.00000000	      0.00000000	      0.00000000	      0.00000000	      0.00000000	      0.00000000	     -1.90337155	    -10.30360279	      5.92851411	      8.78109286
      0.02500000	     -1.32002065	     -7.65533300	     -5.88604794	     -0.83528805	      0.98752994	      0.28741840	    -23.70109534	     10.00036180	      2.20868694	     -7.52836855	      4.94451656	    -10.74939165	      9.16566661	     28.36984884	     -9.28859014	     10.93558308	     -7.30486882	      0.00000000	      0.00000000	      0.00000000	      0.00000000	      0.00000000	      0.00000000	     -2.21966036	    -10.16767515	      5.89388416	      8.76132919
      0.02916667	     -1.39317084	     -7.63599196	     -5.84771765	     -0.82900278	      0.98708470	      0.28694219	    -23.54564678	      9.96464437	      2.15818220	     -8.25129171	      4.71360802	    -10.88429077	      9.17810604	     28.12295564	     -9.19306508	     11.02310733	     -7.27520900	      0.00000000	      0.00000000	      0.00000000	      0.00000000	      0.00000000	      0.00000000	     -2.49210253	    -10.03625935	      5.84425996	      8.73249144
      0.03333333	     -1.46867790	     -7.60887217	     -5.81368793	     -0.82265420	      0.98669882	      0.28646582	    -23.32899476	      9.91770386	      2.02820192	     -9.08145667	      4.44899925	    -11.07728025	      9.19354901	     27.88332978	     -9.09224638	     11.06227841	     -7.26343732	      0.00000000	      0.00000000	      0.00000000	      0.00000000	      0.00000000	      0.00000000	     -2.78695336	     -9.90206552	      5.79053717	      8.69407858
      0.03750000	     -1.54950955	     -7.55712895	     -5.76656001	     -0.81623655	      0.98635682	      0.28598860	    -23.12135058	      9.85384825	      1.95266948	     -9.87333556	      4.18721617	    -11.24323160	      9.20733443	     27.65375251	     -8.96352846	     11.14354227	     -7.27434295	      0.00000000	      0.00000000	      0.00000000	      0.00000000	      0.00000000	      0.00000000	     -3.03067091	     -9.74892867	      5.70178252	      8.64900754
      0.04166667	     -2.20487921	     -7.49769861	     -5.73603113	     -0.80954716	      0.98517009	      0.28538090	    -22.11486148	      9.82329391	      1.44322018	    -11.02381079	      3.69504865	    -11.50215326	     10.63524848	     28.10367994	     -8.82487493	     11.22419700	     -7.41927597	      0.00000000	      0.00000000	      0.00000000	      0.00000000	      0.00000000	      0.00000000	     -3.25752681	     -8.87416627	      5.72332037	      8.54356943
      0.04583333	     -2.21836262	     -7.41495975	     -5.65642024	     -0.80312956	      0.98502159	      0.28489710	    -21.99180829	      9.73972740	      1.49473028	    -11.75233643	      3.40095253	    -11.59676596	     10.61605067	     27.81493030	     -8.65183907	     11.38511937	     -7.46231261	      0.00000000	      0.00000000	      0.00000000	      0.00000000	      0.00000000	      0.00000000	     -3.47478957	     -8.79574783	      5.56622298	      8.47737574
      0.05000000	     -2.23841634	     -7.27902187	     -5.62018171	     -0.79666238	      0.98495893	      0.28440285	    -21.66122181	      9.55472837	      1.11924504	    -12.83945176	      2.92953834	    -11.93669726	     10.60578189	     27.52707904	     -8.43829840	     11.27115156	     -7.50718769	      0.00000000	      0.00000000	      0.00000000	      0.00000000	      0.00000000	      0.00000000	     -3.73763640	     -8.69332241	      5.40299443	      8.35550079
      0.05416667	     -2.29287016	     -7.12049915	     -5.53643366	     -0.79012809	      0.98489690	      0.28390335	    -21.37132182	      9.39423986	      0.98549324	    -13.77069889	      2.51905977	    -12.14154114	     10.61943390	     27.29358679	     -8.18594285	     11.32149957	     -7.59615695	      0.00000000	      0.00000000	      0.00000000	      0.00000000	      0.00000000	      0.00000000	     -3.93934367	     -8.55633412	      5.17818004	      8.24776340
      0.05833333	     -2.39125442	     -6.89107803	     -5.46445036	     -0.78354526	      0.98479175	      0.28344398	    -20.95172276	      9.13722259	      0.64506484	    -14.83618625	      2.01644358	    -12.43752833	     10.70551149	     27.12266218	     -7.87411140	     11.28058190	     -7.71930537	      0.00000000	      0.00000000	      0.00000000	      0.00000000	      0.00000000	      0.00000000	     -4.10462308	     -8.32507800	      4.88274064	      8.08993520
      0.06250000	     -2.87609127	     -6.61309048	     -5.25828134	     -0.77673991	      0.98404142	      0.28264675	    -20.06790457	      8.87997695	     -0.01157090	    -15.96507186	      1.30217620	    -12.40619839	     12.65516624	     27.44968640	     -7.43913930	     11.45698717	     -7.96189932	      0.00000000	      0.00000000	      0.00000000	      0.00000000	      0.00000000	      0.00000000	     -4.28708506	     -7.60272680	      4.61176343	      7.72303820
      0.06666667	     -2.82913231	     -6.40580142	     -5.18363023	     -0.77029775	      0.98430214	      0.28217750	    -19.75682808	      8.62747617	     -0.23364126	    -17.07779217	      0.71118587	    -12.65445698	     12.62620381	     27.14315343	     -7.14810801	     11.41783541	     -8.12676439	      0.00000000	      0.00000000	      0.00000000	      0.00000000	      0.00000000	      0.00000000	     -4.38464378	     -7.57775370	      4.30843302	      7.60145405
      0.07083333	     -2.82893372	     -6.12800344	     -5.07923267	     -0.76378327	      0.98452916	      0.28161989	    -19.38378396	      8.31075002	     -0.50171761	    -18.19020800	      0.10607028	    -12.89080141	     12.62510755	     26.90134192	     -6.76499812	     11.37665189	     -8.31931759	      0.00000000	      0.00000000	      0.00000000	      0.00000000	      0.00000000	      0.00000000	     -4.50233785	     -7.48122126	      3.95454124	      7.44725728
      0.07500000	     -3.08496821	     -5.70847067	     -4.84986450	     -0.75700832	      0.98427008	      0.28086419	    -18.63501166	      7.84202274	     -1.27885605	    -19.45971247	     -0.69898853	    -12.76004172	     14.38303434	     26.99116704	     -6.18564498	     11.43310614	     -8.60181227	      0.00000000	      0.00000000	      0.00000000	      0.00000000	      0.00000000	      0.00000000	     -4.59868433	     -7.01432868	      3.47141363	      7.05733308
      0.07916667	     -3.03899807	     -5.40514694	     -4.75167519	     -0.75056527	      0.98466564	      0.28034004	    -18.23096255	      7.47768005	     -1.55574385	    -20.68371700	     -1.39786015	    -13.02716667	     14.32173782	     26.72510795	     -5.78507246	     11.34750777	     -8.84784297	      0.00000000	      0.00000000	      0.00000000	      0.00000000	      0.00000000	      0.00000000	     -4.67653182	     -6.98843422	      3.07157347	      6.90746338
      0.08333333	     -3.06654666	     -4.98599054	     -4.59563830	     -0.74394188	      0.98497720	      0.27979071	    -17.72158769	      7.00009713	     -1.98425789	    -21.94495977	     -2.13482606	    -13.22991716	     14.39963470	     26.54403851	     -5.24888759	     11.24205760	     -9.10593313	      0.00000000	      0.00000000	      0.00000000	      0.00000000	      0.00000000	      0.00000000	     -4.75338619	     -6.82621275	      2.52491603	      6.68881074
